<svg width="20" height="20" viewBox="0 0 20 20" fill="none" xmlns="http://www.w3.org/2000/svg">
<g clip-path="url(#clip0_97_2480)">
<path fill-rule="evenodd" clip-rule="evenodd" d="M1.6665 2.49984C1.6665 2.0396 2.0396 1.6665 2.49984 1.6665H17.4998C17.9601 1.6665 18.3332 2.0396 18.3332 2.49984V4.65466C18.3332 5.09669 18.1576 5.52061 17.845 5.83317L12.4998 11.1783V15.8332C12.4998 16.1488 12.3215 16.4374 12.0392 16.5785L8.70585 18.2452C8.44753 18.3744 8.14074 18.3606 7.89506 18.2087C7.64938 18.0569 7.49984 17.7887 7.49984 17.4998V11.1783L2.15466 5.83317C1.8421 5.52061 1.6665 5.09669 1.6665 4.65466V2.49984ZM3.33317 3.33317V4.65466L8.92243 10.2439C9.07871 10.4002 9.1665 10.6122 9.1665 10.8332V16.1515L10.8332 15.3181V10.8332C10.8332 10.6122 10.921 10.4002 11.0772 10.2439L16.6665 4.65466V3.33317H3.33317Z" fill="#6148FF"/>
</g>
<defs>
<clipPath id="clip0_97_2480">
<rect width="16.6667" height="16.6667" fill="white" transform="translate(1.6665 1.6665)"/>
</clipPath>
</defs>
</svg>
