<svg width="25" height="25" viewBox="0 0 25 25" fill="none" xmlns="http://www.w3.org/2000/svg">
<path fill-rule="evenodd" clip-rule="evenodd" d="M12.5003 2C12.1025 2 11.721 2.15804 11.4397 2.43934C11.1584 2.72064 11.0003 3.10218 11.0003 3.5V3.65C9.30653 3.99632 7.7843 4.91694 6.69103 6.2562C5.59776 7.59546 5.00053 9.27117 5.00031 11V17L3.19281 18.992C2.31831 19.9565 3.00231 21.5 4.30281 21.5H9.90232C10.1656 21.956 10.5443 22.3347 11.0004 22.598C11.4564 22.8613 11.9737 22.9999 12.5003 22.9999C13.0269 22.9999 13.5442 22.8613 14.0002 22.598C14.4563 22.3347 14.835 21.956 15.0983 21.5H20.6978C21.9983 21.5 22.6823 19.955 21.8078 18.992L20.0003 17V11C20.0001 9.27117 19.4029 7.59546 18.3096 6.2562C17.2163 4.91694 15.6941 3.99632 14.0003 3.65V3.5C14.0003 3.10218 13.8423 2.72064 13.561 2.43934C13.2797 2.15804 12.8981 2 12.5003 2ZM7.25031 17.87L6.66531 18.512L5.99631 19.25H19.0043L18.3338 18.512L17.7503 17.8685V11C17.7503 10.3106 17.6145 9.62787 17.3507 8.99091C17.0868 8.35395 16.7001 7.7752 16.2126 7.28769C15.7251 6.80018 15.1464 6.41347 14.5094 6.14963C13.8724 5.8858 13.1898 5.75 12.5003 5.75C11.8109 5.75 11.1282 5.8858 10.4912 6.14963C9.85427 6.41347 9.27551 6.80018 8.788 7.28769C8.3005 7.7752 7.91378 8.35395 7.64995 8.99091C7.38611 9.62787 7.25031 10.3106 7.25031 11V17.87Z" fill="#8A8A8A"/>
</svg>
