<svg width="25" height="25" viewBox="0 0 25 25" fill="none" xmlns="http://www.w3.org/2000/svg">
<path d="M20.7502 10.5C20.7502 10.3358 20.7178 10.1733 20.655 10.0216C20.5922 9.86998 20.5001 9.73218 20.384 9.61611C20.268 9.50003 20.1302 9.40796 19.9785 9.34514C19.8269 9.28232 19.6643 9.24999 19.5002 9.24999C19.336 9.24999 19.1735 9.28232 19.0218 9.34514C18.8702 9.40796 18.7324 9.50003 18.6163 9.61611C18.5002 9.73218 18.4081 9.86998 18.3453 10.0216C18.2825 10.1733 18.2502 10.3358 18.2502 10.5H20.7502ZM6.75016 10.5C6.75016 10.1685 6.61847 9.85053 6.38405 9.61611C6.14963 9.38169 5.83169 9.24999 5.50016 9.24999C5.16864 9.24999 4.8507 9.38169 4.61628 9.61611C4.38186 9.85053 4.25016 10.1685 4.25016 10.5H6.75016ZM20.6162 13.384C20.8506 13.6184 21.1686 13.7502 21.5002 13.7502C21.8317 13.7502 22.1497 13.6184 22.3842 13.384C22.6186 13.1495 22.7503 12.8316 22.7503 12.5C22.7503 12.1684 22.6186 11.8504 22.3842 11.616L20.6162 13.384ZM12.5002 3.49999L13.3842 2.61599C13.2681 2.49988 13.1303 2.40778 12.9786 2.34494C12.8269 2.2821 12.6643 2.24976 12.5002 2.24976C12.336 2.24976 12.1734 2.2821 12.0217 2.34494C11.8701 2.40778 11.7322 2.49988 11.6162 2.61599L12.5002 3.49999ZM2.61616 11.616C2.38171 11.8504 2.25 12.1684 2.25 12.5C2.25 12.8316 2.38171 13.1495 2.61616 13.384C2.85062 13.6184 3.1686 13.7502 3.50016 13.7502C3.83173 13.7502 4.14971 13.6184 4.38416 13.384L2.61616 11.616ZM7.50016 22.75H17.5002V20.25H7.50016V22.75ZM20.7502 19.5V10.5H18.2502V19.5H20.7502ZM6.75016 19.5V10.5H4.25016V19.5H6.75016ZM22.3842 11.616L13.3842 2.61599L11.6162 4.38399L20.6162 13.384L22.3842 11.616ZM11.6162 2.61599L2.61616 11.616L4.38416 13.384L13.3842 4.38399L11.6162 2.61599ZM17.5002 22.75C18.3621 22.75 19.1888 22.4076 19.7983 21.7981C20.4078 21.1886 20.7502 20.3619 20.7502 19.5H18.2502C18.2502 19.6989 18.1711 19.8897 18.0305 20.0303C17.8898 20.171 17.6991 20.25 17.5002 20.25V22.75ZM7.50016 20.25C7.30125 20.25 7.11049 20.171 6.96983 20.0303C6.82918 19.8897 6.75016 19.6989 6.75016 19.5H4.25016C4.25016 20.3619 4.59257 21.1886 5.20207 21.7981C5.81156 22.4076 6.63821 22.75 7.50016 22.75V20.25Z" fill="#8A8A8A"/>
</svg>
