<svg width="25" height="25" viewBox="0 0 25 25" fill="none" xmlns="http://www.w3.org/2000/svg">
<rect width="25" height="25" fill="#F5F5F5"/>
<g id="M_Detail Kelas_Materi" clip-path="url(#clip0_0_1)">
<rect width="375" height="812" transform="translate(-325 -760)" fill="#EBF3FC"/>
<g id="card belajar">
<g id="Rectangle" filter="url(#filter0_d_0_1)">
<rect x="-325" y="-510" width="375" height="755" rx="15" fill="white"/>
</g>
<g id="paragraf">
<g id="materi premium">
<g id="card 2">
<g id="01">
<g id="bxs:lock">
<path id="Vector" d="M20 11C17.243 11 15 13.243 15 16V19H14C13.4696 19 12.9609 19.2107 12.5858 19.5858C12.2107 19.9609 12 20.4696 12 21V29C12 29.5304 12.2107 30.0391 12.5858 30.4142C12.9609 30.7893 13.4696 31 14 31H26C26.5304 31 27.0391 30.7893 27.4142 30.4142C27.7893 30.0391 28 29.5304 28 29V21C28 20.4696 27.7893 19.9609 27.4142 19.5858C27.0391 19.2107 26.5304 19 26 19H25V16C25 13.243 22.757 11 20 11ZM17 16C17 14.346 18.346 13 20 13C21.654 13 23 14.346 23 16V19H17V16ZM21 26.723V29H19V26.723C18.6504 26.5228 18.3697 26.2213 18.1948 25.8584C18.02 25.4954 17.9593 25.0879 18.0207 24.6898C18.0821 24.2916 18.2627 23.9214 18.5388 23.6279C18.8148 23.3345 19.1733 23.1316 19.567 23.046C19.8594 22.9813 20.1626 22.9832 20.4542 23.0513C20.7459 23.1194 21.0185 23.2521 21.252 23.4397C21.4855 23.6272 21.6739 23.8647 21.8034 24.1348C21.9328 24.4049 22 24.7005 22 25C21.9994 25.3497 21.9067 25.6932 21.7311 25.9956C21.5556 26.2981 21.3034 26.549 21 26.723Z" fill="#D9D9D9"/>
</g>
</g>
</g>
</g>
</g>
</g>
<g id="bottom menu" filter="url(#filter1_d_0_1)">
<rect width="375" height="60" transform="translate(-325 -8)" fill="white"/>
<g id="menu 5">
<rect width="75" height="60" transform="translate(-25 -8)" fill="white"/>
<g id="Frame 131">
<g id="tdesign:user">
<path id="Vector_2" d="M12.5 4.5C11.5717 4.5 10.6815 4.86875 10.0251 5.52513C9.36875 6.1815 9 7.07174 9 8C9 8.92826 9.36875 9.8185 10.0251 10.4749C10.6815 11.1313 11.5717 11.5 12.5 11.5C13.4283 11.5 14.3185 11.1313 14.9749 10.4749C15.6313 9.8185 16 8.92826 16 8C16 7.07174 15.6313 6.1815 14.9749 5.52513C14.3185 4.86875 13.4283 4.5 12.5 4.5ZM7 8C7 6.54131 7.57946 5.14236 8.61091 4.11091C9.64236 3.07946 11.0413 2.5 12.5 2.5C13.9587 2.5 15.3576 3.07946 16.3891 4.11091C17.4205 5.14236 18 6.54131 18 8C18 9.45869 17.4205 10.8576 16.3891 11.8891C15.3576 12.9205 13.9587 13.5 12.5 13.5C11.0413 13.5 9.64236 12.9205 8.61091 11.8891C7.57946 10.8576 7 9.45869 7 8ZM3.5 19.5C3.5 18.1739 4.02678 16.9021 4.96447 15.9645C5.90215 15.0268 7.17392 14.5 8.5 14.5H16.5C17.8261 14.5 19.0979 15.0268 20.0355 15.9645C20.9732 16.9021 21.5 18.1739 21.5 19.5V22.5H3.5V19.5ZM8.5 16.5C7.70435 16.5 6.94129 16.8161 6.37868 17.3787C5.81607 17.9413 5.5 18.7044 5.5 19.5V20.5H19.5V19.5C19.5 18.7044 19.1839 17.9413 18.6213 17.3787C18.0587 16.8161 17.2956 16.5 16.5 16.5H8.5Z" fill="#8A8A8A"/>
</g>
</g>
</g>
</g>
</g>
<defs>
<filter id="filter0_d_0_1" x="-335" y="-516" width="395" height="775" filterUnits="userSpaceOnUse" color-interpolation-filters="sRGB">
<feFlood flood-opacity="0" result="BackgroundImageFix"/>
<feColorMatrix in="SourceAlpha" type="matrix" values="0 0 0 0 0 0 0 0 0 0 0 0 0 0 0 0 0 0 127 0" result="hardAlpha"/>
<feOffset dy="4"/>
<feGaussianBlur stdDeviation="5"/>
<feColorMatrix type="matrix" values="0 0 0 0 0 0 0 0 0 0 0 0 0 0 0 0 0 0 0.08 0"/>
<feBlend mode="normal" in2="BackgroundImageFix" result="effect1_dropShadow_0_1"/>
<feBlend mode="normal" in="SourceGraphic" in2="effect1_dropShadow_0_1" result="shape"/>
</filter>
<filter id="filter1_d_0_1" x="-329" y="-12" width="383" height="68" filterUnits="userSpaceOnUse" color-interpolation-filters="sRGB">
<feFlood flood-opacity="0" result="BackgroundImageFix"/>
<feColorMatrix in="SourceAlpha" type="matrix" values="0 0 0 0 0 0 0 0 0 0 0 0 0 0 0 0 0 0 127 0" result="hardAlpha"/>
<feOffset/>
<feGaussianBlur stdDeviation="2"/>
<feComposite in2="hardAlpha" operator="out"/>
<feColorMatrix type="matrix" values="0 0 0 0 0 0 0 0 0 0 0 0 0 0 0 0 0 0 0.25 0"/>
<feBlend mode="normal" in2="BackgroundImageFix" result="effect1_dropShadow_0_1"/>
<feBlend mode="normal" in="SourceGraphic" in2="effect1_dropShadow_0_1" result="shape"/>
</filter>
<clipPath id="clip0_0_1">
<rect width="375" height="812" fill="white" transform="translate(-325 -760)"/>
</clipPath>
</defs>
</svg>
