<svg width="25" height="25" viewBox="0 0 25 25" fill="none" xmlns="http://www.w3.org/2000/svg">
<path d="M4.16346 21.1315C3.01734 20.0245 2.10315 18.7004 1.47424 17.2363C0.845334 15.7723 0.514299 14.1976 0.500453 12.6043C0.486607 11.0109 0.790228 9.43077 1.3936 7.95601C1.99697 6.48125 2.88801 5.14143 4.01472 4.01472C5.14143 2.88801 6.48125 1.99697 7.95601 1.3936C9.43077 0.790228 11.0109 0.486607 12.6043 0.500453C14.1976 0.514299 15.7723 0.845334 17.2363 1.47424C18.7004 2.10315 20.0245 3.01734 21.1315 4.16346C23.3174 6.42668 24.5269 9.45791 24.4995 12.6043C24.4722 15.7506 23.2102 18.7604 20.9853 20.9853C18.7604 23.2102 15.7506 24.4722 12.6043 24.4995C9.45791 24.5269 6.42668 23.3174 4.16346 21.1315ZM19.4395 19.4395C21.2408 17.6381 22.2528 15.195 22.2528 12.6475C22.2528 10.1 21.2408 7.65681 19.4395 5.85546C17.6381 4.05411 15.195 3.04212 12.6475 3.04212C10.1 3.04212 7.65681 4.05411 5.85546 5.85546C4.05411 7.65681 3.04212 10.1 3.04212 12.6475C3.04212 15.195 4.05411 17.6381 5.85546 19.4395C7.65681 21.2408 10.1 22.2528 12.6475 22.2528C15.195 22.2528 17.6381 21.2408 19.4395 19.4395ZM9.04746 7.84746L18.6475 12.6475L9.04746 17.4475V7.84746Z" fill="#6148FF"/>
</svg>
